<?xml version="1.0" standalone="no"?><!DOCTYPE svg PUBLIC "-//W3C//DTD SVG 1.1//EN" "http://www.w3.org/Graphics/SVG/1.1/DTD/svg11.dtd"><svg t="1749121753123" class="icon" viewBox="0 0 1024 1024" version="1.1" xmlns="http://www.w3.org/2000/svg" p-id="19909" xmlns:xlink="http://www.w3.org/1999/xlink" width="200" height="200"><path d="M666.75869 403.320789" p-id="19910" fill="#2c2c2c"></path><path d="M863.888396 783.609001 863.888396 240.389976 160.111604 240.389976l0 543.219026L863.888396 783.609001 863.888396 783.609001zM807.006897 291.758923l0 436.809507-9.271154 0c0 0-209.925127-118.499881-232.003981-130.415258-22.079878-11.914354-29.547966-17.817808-38.667671-17.336854-19.656689 0.271176-32.369222 12.608156-33.268708 13.677511l-40.445154 35.233456c-8.197706 7.780197-15.012925 0.982374-18.296715-2.318812-24.720008-24.740474-72.629157-67.482951-78.631872-72.817446-3.972475-3.972475-17.983583-16.414855-38.205137-16.896832-10.580986-0.522909-26.602891 2.824325-42.704614 18.926048-14.993482 14.994506-39.373753 40.129976-61.893652 60.652382l0-325.513702L807.006897 291.758923zM213.638705 728.568431l0-51.699476c17.304108-14.458293 67.807339-58.326407 91.65549-80.428797 3.079128-2.833535 7.331989-6.655584 12.006452-6.208399 4.924149 0.020466 9.428743 3.997034 9.470699 3.997034l0 0 1.572822 1.418302c0.521886 0.426719 52.53347 43.289945 77.553307 66.474994 15.255449 14.146185 30.888498 16.242939 40.635489 16.84362 21.561062-0.251733 35.854603-13.601786 35.960003-13.836123l40.464597-32.618908c4.169973-3.648087 8.562003-1.879813 10.735505-0.691755 2.174526 1.188058 175.291328 96.748485 175.291328 96.748485L213.638705 728.567407 213.638705 728.568431zM655.029554 551.426965c59.567677 0 108.029412-48.529273 108.029412-108.164488s-48.461735-108.164488-108.029412-108.164488c-59.566654 0-108.025319 48.529273-108.025319 108.164488S595.488483 551.426965 655.029554 551.426965L655.029554 551.426965zM655.029554 380.709815c34.414811 0 62.420655 28.0478 62.420655 62.552661s-28.005844 62.555731-62.420655 62.555731c-34.410718 0-62.416562-28.05087-62.416562-62.555731S620.618836 380.709815 655.029554 380.709815L655.029554 380.709815zM657.989979 351.349113" p-id="19911" fill="#2c2c2c"></path></svg>